<svg height="1710" width="720" xmlns="http://www.w3.org/2000/svg">
<rect height="1710" fill="#555" width="720"></rect>
<text fill="#7f7" font-family="Courier New" font-size="12" xml:space="preserve">
<tspan x="10" y="26">9 megabytes installed</tspan>
<tspan x="10" y="42"></tspan>
<tspan x="10" y="58">node_modules</tspan>
<tspan x="10" y="74">└─┬ npm-registry-client@8.1.1 </tspan>
<tspan x="10" y="90">  ├─┬ concat-stream@1.6.0 </tspan>
<tspan x="10" y="106">  │ ├── inherits@2.0.3 </tspan>
<tspan x="10" y="122">  │ ├─┬ readable-stream@2.2.9 </tspan>
<tspan x="10" y="138">  │ │ ├── buffer-shims@1.0.0 </tspan>
<tspan x="10" y="154">  │ │ ├── core-util-is@1.0.2 </tspan>
<tspan x="10" y="170">  │ │ ├── isarray@1.0.0 </tspan>
<tspan x="10" y="186">  │ │ ├── process-nextick-args@1.0.7 </tspan>
<tspan x="10" y="202">  │ │ ├── string_decoder@1.0.0 </tspan>
<tspan x="10" y="218">  │ │ └── util-deprecate@1.0.2 </tspan>
<tspan x="10" y="234">  │ └── typedarray@0.0.6 </tspan>
<tspan x="10" y="250">  ├── graceful-fs@4.1.11 </tspan>
<tspan x="10" y="266">  ├─┬ normalize-package-data@2.3.6 </tspan>
<tspan x="10" y="282">  │ ├── hosted-git-info@2.4.2 </tspan>
<tspan x="10" y="298">  │ ├─┬ is-builtin-module@1.0.0 </tspan>
<tspan x="10" y="314">  │ │ └── builtin-modules@1.1.1 </tspan>
<tspan x="10" y="330">  │ └─┬ validate-npm-package-license@3.0.1 </tspan>
<tspan x="10" y="346">  │   ├─┬ spdx-correct@1.0.2 </tspan>
<tspan x="10" y="362">  │   │ └── spdx-license-ids@1.2.2 </tspan>
<tspan x="10" y="378">  │   └── spdx-expression-parse@1.0.4 </tspan>
<tspan x="10" y="394">  ├─┬ npm-package-arg@5.0.1 </tspan>
<tspan x="10" y="410">  │ ├─┬ osenv@0.1.4 </tspan>
<tspan x="10" y="426">  │ │ ├── os-homedir@1.0.2 </tspan>
<tspan x="10" y="442">  │ │ └── os-tmpdir@1.0.2 </tspan>
<tspan x="10" y="458">  │ └─┬ validate-npm-package-name@3.0.0 </tspan>
<tspan x="10" y="474">  │   └── builtins@1.0.3 </tspan>
<tspan x="10" y="490">  ├─┬ npmlog@4.0.2 </tspan>
<tspan x="10" y="506">  │ ├─┬ are-we-there-yet@1.1.2 </tspan>
<tspan x="10" y="522">  │ │ └── delegates@1.0.0 </tspan>
<tspan x="10" y="538">  │ ├── console-control-strings@1.1.0 </tspan>
<tspan x="10" y="554">  │ ├─┬ gauge@2.7.3 </tspan>
<tspan x="10" y="570">  │ │ ├── aproba@1.1.1 </tspan>
<tspan x="10" y="586">  │ │ ├── has-unicode@2.0.1 </tspan>
<tspan x="10" y="602">  │ │ ├── object-assign@4.1.1 </tspan>
<tspan x="10" y="618">  │ │ ├── signal-exit@3.0.2 </tspan>
<tspan x="10" y="634">  │ │ ├─┬ string-width@1.0.2 </tspan>
<tspan x="10" y="650">  │ │ │ ├── code-point-at@1.1.0 </tspan>
<tspan x="10" y="666">  │ │ │ └─┬ is-fullwidth-code-point@1.0.0 </tspan>
<tspan x="10" y="682">  │ │ │   └── number-is-nan@1.0.1 </tspan>
<tspan x="10" y="698">  │ │ ├─┬ strip-ansi@3.0.1 </tspan>
<tspan x="10" y="714">  │ │ │ └── ansi-regex@2.1.1 </tspan>
<tspan x="10" y="730">  │ │ └── wide-align@1.1.0 </tspan>
<tspan x="10" y="746">  │ └── set-blocking@2.0.0 </tspan>
<tspan x="10" y="762">  ├─┬ once@1.4.0 </tspan>
<tspan x="10" y="778">  │ └── wrappy@1.0.2 </tspan>
<tspan x="10" y="794">  ├─┬ request@2.81.0 </tspan>
<tspan x="10" y="810">  │ ├── aws-sign2@0.6.0 </tspan>
<tspan x="10" y="826">  │ ├── aws4@1.6.0 </tspan>
<tspan x="10" y="842">  │ ├── caseless@0.12.0 </tspan>
<tspan x="10" y="858">  │ ├─┬ combined-stream@1.0.5 </tspan>
<tspan x="10" y="874">  │ │ └── delayed-stream@1.0.0 </tspan>
<tspan x="10" y="890">  │ ├── extend@3.0.0 </tspan>
<tspan x="10" y="906">  │ ├── forever-agent@0.6.1 </tspan>
<tspan x="10" y="922">  │ ├─┬ form-data@2.1.4 </tspan>
<tspan x="10" y="938">  │ │ └── asynckit@0.4.0 </tspan>
<tspan x="10" y="954">  │ ├─┬ har-validator@4.2.1 </tspan>
<tspan x="10" y="970">  │ │ ├─┬ ajv@4.11.7 </tspan>
<tspan x="10" y="986">  │ │ │ ├── co@4.6.0 </tspan>
<tspan x="10" y="1002">  │ │ │ └─┬ json-stable-stringify@1.0.1 </tspan>
<tspan x="10" y="1018">  │ │ │   └── jsonify@0.0.0 </tspan>
<tspan x="10" y="1034">  │ │ └── har-schema@1.0.5 </tspan>
<tspan x="10" y="1050">  │ ├─┬ hawk@3.1.3 </tspan>
<tspan x="10" y="1066">  │ │ ├── boom@2.10.1 </tspan>
<tspan x="10" y="1082">  │ │ ├── cryptiles@2.0.5 </tspan>
<tspan x="10" y="1098">  │ │ ├── hoek@2.16.3 </tspan>
<tspan x="10" y="1114">  │ │ └── sntp@1.0.9 </tspan>
<tspan x="10" y="1130">  │ ├─┬ http-signature@1.1.1 </tspan>
<tspan x="10" y="1146">  │ │ ├── assert-plus@0.2.0 </tspan>
<tspan x="10" y="1162">  │ │ ├─┬ jsprim@1.4.0 </tspan>
<tspan x="10" y="1178">  │ │ │ ├── assert-plus@1.0.0 </tspan>
<tspan x="10" y="1194">  │ │ │ ├── extsprintf@1.0.2 </tspan>
<tspan x="10" y="1210">  │ │ │ ├── json-schema@0.2.3 </tspan>
<tspan x="10" y="1226">  │ │ │ └── verror@1.3.6 </tspan>
<tspan x="10" y="1242">  │ │ └─┬ sshpk@1.13.0 </tspan>
<tspan x="10" y="1258">  │ │   ├── asn1@0.2.3 </tspan>
<tspan x="10" y="1274">  │ │   ├── assert-plus@1.0.0 </tspan>
<tspan x="10" y="1290">  │ │   ├── bcrypt-pbkdf@1.0.1 </tspan>
<tspan x="10" y="1306">  │ │   ├─┬ dashdash@1.14.1 </tspan>
<tspan x="10" y="1322">  │ │   │ └── assert-plus@1.0.0 </tspan>
<tspan x="10" y="1338">  │ │   ├── ecc-jsbn@0.1.1 </tspan>
<tspan x="10" y="1354">  │ │   ├─┬ getpass@0.1.6 </tspan>
<tspan x="10" y="1370">  │ │   │ └── assert-plus@1.0.0 </tspan>
<tspan x="10" y="1386">  │ │   ├── jodid25519@1.0.2 </tspan>
<tspan x="10" y="1402">  │ │   ├── jsbn@0.1.1 </tspan>
<tspan x="10" y="1418">  │ │   └── tweetnacl@0.14.5 </tspan>
<tspan x="10" y="1434">  │ ├── is-typedarray@1.0.0 </tspan>
<tspan x="10" y="1450">  │ ├── isstream@0.1.2 </tspan>
<tspan x="10" y="1466">  │ ├── json-stringify-safe@5.0.1 </tspan>
<tspan x="10" y="1482">  │ ├─┬ mime-types@2.1.15 </tspan>
<tspan x="10" y="1498">  │ │ └── mime-db@1.27.0 </tspan>
<tspan x="10" y="1514">  │ ├── oauth-sign@0.8.2 </tspan>
<tspan x="10" y="1530">  │ ├── performance-now@0.2.0 </tspan>
<tspan x="10" y="1546">  │ ├── qs@6.4.0 </tspan>
<tspan x="10" y="1562">  │ ├── safe-buffer@5.0.1 </tspan>
<tspan x="10" y="1578">  │ ├── stringstream@0.0.5 </tspan>
<tspan x="10" y="1594">  │ ├─┬ tough-cookie@2.3.2 </tspan>
<tspan x="10" y="1610">  │ │ └── punycode@1.4.1 </tspan>
<tspan x="10" y="1626">  │ ├── tunnel-agent@0.6.0 </tspan>
<tspan x="10" y="1642">  │ └── uuid@3.0.1 </tspan>
<tspan x="10" y="1658">  ├── retry@0.10.1 </tspan>
<tspan x="10" y="1674">  ├── semver@5.3.0 </tspan>
<tspan x="10" y="1690">  └── slide@1.1.6</tspan>
</text>
</svg>
